<svg xmlns="http://www.w3.org/2000/svg" xmlns:xlink="http://www.w3.org/1999/xlink" version="1.1" x="0px" y="0px" viewBox="0 0 100 125" style="enable-background:new 0 0 100 100;" xml:space="preserve"><path d="M76.8,74.4c6.1-6.7,9.4-15.2,9.4-24.3c0,0,0,0,0,0c0,0,0,0,0,0c0,0,0,0,0,0c0,0,0,0,0,0c0-9.3-3.5-17.7-9.2-24.1  c-0.1-0.2-0.3-0.4-0.5-0.5c-6.6-7.1-16-11.6-26.4-11.6c0,0,0,0,0,0c0,0-0.1,0-0.1,0c0,0-0.1,0-0.1,0c0,0,0,0,0,0  c-10.4,0-19.8,4.5-26.4,11.6c-0.2,0.1-0.3,0.3-0.4,0.5c-5.7,6.4-9.3,14.9-9.3,24.2c0,9.3,3.5,17.8,9.3,24.2c0.1,0.1,0.2,0.3,0.4,0.4  C30,81.7,39.5,86.2,50,86.2c0,0,0,0,0,0c0,0,0,0,0,0s0,0,0,0c0,0,0,0,0,0c0,0,0,0,0,0c9.7,0,18.8-3.8,25.6-10.6  C76,75.2,76.4,74.8,76.8,74.4C76.8,74.4,76.8,74.4,76.8,74.4z M17.8,52h18.1c0.2,4.6,1,9.2,2.4,13.6c-4.5,1-8.9,2.6-13.1,4.9  C20.9,65.4,18.3,59,17.8,52z M25.2,29.5c4.2,2.2,8.6,3.8,13.1,4.9c-1.4,4.5-2.2,9.1-2.4,13.7H17.8C18.3,41,20.9,34.6,25.2,29.5z   M82.2,48H64.1c-0.2-4.6-1-9.2-2.4-13.7c4.5-1,8.9-2.7,13.1-4.9C79.1,34.6,81.7,41,82.2,48z M42.2,64.9c-1.4-4.2-2.1-8.5-2.3-12.9  h20.1c-0.2,4.3-1,8.7-2.3,12.9C52.6,64.1,47.4,64.1,42.2,64.9z M56.3,68.7c-0.9,2.2-2,4.4-3.3,6.4L50,80.3l-3.1-5.2  c-1.3-2.1-2.3-4.2-3.3-6.4C47.9,68.2,52.1,68.2,56.3,68.7z M39.9,48c0.2-4.4,1-8.7,2.3-12.9c2.6,0.4,5.2,0.6,7.8,0.6  c2.6,0,5.2-0.2,7.7-0.6c1.4,4.2,2.1,8.5,2.3,12.9H39.9z M43.7,31.3c0.9-2.2,2-4.4,3.3-6.4l3.1-5.2l3.1,5.2c1.3,2.1,2.3,4.2,3.3,6.4  C52.1,31.8,47.9,31.8,43.7,31.3z M60.4,30.6c-1.1-2.7-2.4-5.3-3.9-7.8L53.6,18c7.1,0.8,13.4,3.9,18.4,8.5  C68.3,28.3,64.4,29.7,60.4,30.6z M43.5,22.8c-1.5,2.5-2.8,5.1-3.9,7.8c-4-0.9-7.9-2.2-11.6-4.1c4.9-4.6,11.3-7.7,18.4-8.5L43.5,22.8  z M39.6,69.4c1.1,2.7,2.4,5.3,3.9,7.8l2.9,4.8c-7.1-0.8-13.4-3.9-18.3-8.5C31.7,71.7,35.6,70.3,39.6,69.4z M56.5,77.2  c1.5-2.5,2.8-5.1,3.9-7.8c4,0.9,7.9,2.2,11.6,4.1c-5.1,4.8-11.5,7.7-18.4,8.5L56.5,77.2z M61.7,65.6c1.4-4.4,2.2-9,2.4-13.6h18.1  c-0.4,6.8-3,13.3-7.3,18.5C70.7,68.3,66.3,66.7,61.7,65.6z"/><text x="0" y="115" fill="#000000" font-size="5px" font-weight="bold" font-family="'Helvetica Neue', Helvetica, Arial-Unicode, Arial, Sans-serif">Created by Pravin Unagar</text><text x="0" y="120" fill="#000000" font-size="5px" font-weight="bold" font-family="'Helvetica Neue', Helvetica, Arial-Unicode, Arial, Sans-serif">from the Noun Project</text></svg>